<svg height='100px' width='100px'  fill="#000000" xmlns:x="http://ns.adobe.com/Extensibility/1.0/" xmlns:i="http://ns.adobe.com/AdobeIllustrator/10.0/" xmlns:graph="http://ns.adobe.com/Graphs/1.0/" xmlns="http://www.w3.org/2000/svg" xmlns:xlink="http://www.w3.org/1999/xlink" xmlns:a="http://ns.adobe.com/AdobeSVGViewerExtensions/3.0/" version="1.1" x="0px" y="0px" viewBox="0 0 96 96" enable-background="new 0 0 96 96" xml:space="preserve"><metadata><?xpacket begin="&#65279;" id="W5M0MpCehiHzreSzNTczkc9d"?><x:xmpmeta xmlns:x="adobe:ns:meta/" x:xmptk="Adobe XMP Core 5.5-c014 79.151739, 2013/04/03-12:12:15        "></x:xmpmeta><?xpacket end="w"?></metadata><path d="M70.6083984,23.25c2.3535156,0,4.7128906,0.3447266,7.0126953,1.0234375  c0.09375,0.0273438,0.1894531,0.0410156,0.2832031,0.0410156c0.0068359,0,0.0166016-0.0009766,0.0195313,0  c0.5527344,0,1-0.4472656,1-1c0-0.3369141-0.1660156-0.6347656-0.4208984-0.8154297  C71.7080078,15.7265625,62.6914063,12,53.0957031,12c-19.8505859,0-36,16.1494141-36,36s16.1494141,36,36,36  c9.6474609,0,18.7099609-3.7675781,25.5175781-10.609375c0.3222656-0.3232422,0.3837891-0.8242188,0.1503906-1.2167969  c-0.234375-0.3925781-0.703125-0.578125-1.1425781-0.4472656C75.3212891,72.4052734,72.9619141,72.75,70.6083984,72.75  c-13.6474609,0-24.75-11.1025391-24.75-24.75S56.9609375,23.25,70.6083984,23.25z M43.8583984,48c0,14.75,12,26.75,26.75,26.75  c1.2783203,0,2.5576172-0.09375,3.8291016-0.2802734C68.4111328,79.3496094,60.9589844,82,53.0957031,82  c-18.7480469,0-34-15.2519531-34-34s15.2519531-34,34-34c7.8632813,0,15.3154297,2.6503906,21.3417969,7.5302734  C73.1660156,21.34375,71.8867188,21.25,70.6083984,21.25C55.8583984,21.25,43.8583984,33.25,43.8583984,48z"></path></svg>